<svg width="214" height="62" viewBox="0 0 214 62" fill="none" xmlns="http://www.w3.org/2000/svg">
<path d="M31.0001 25.8334C36.707 25.8334 41.3334 21.207 41.3334 15.5001C41.3334 9.79314 36.707 5.16675 31.0001 5.16675C25.2931 5.16675 20.6667 9.79314 20.6667 15.5001C20.6667 21.207 25.2931 25.8334 31.0001 25.8334Z" stroke="#7F0019" stroke-width="2.5"/>
<path d="M51.6615 46.5002C51.6667 46.0765 51.6667 45.6451 51.6667 45.2085C51.6667 38.7889 42.4132 33.5835 31 33.5835C19.5869 33.5835 10.3334 38.7889 10.3334 45.2085C10.3334 51.6281 10.3334 56.8335 31 56.8335C36.7635 56.8335 40.92 56.4279 43.9167 55.7046" stroke="#7F0019" stroke-width="2.5" stroke-linecap="round"/>
<path d="M91 22H133M133 22L126 28M133 22L126 16" stroke="#C2C9CD"/>
<path d="M133 41H91M91 41L98 47M91 41L98 35" stroke="#C2C9CD"/>
</svg>
